<svg xmlns="http://www.w3.org/2000/svg" viewBox="185 0 125 28.5" fill="none" width="125" height="29" style="display:block"><g fill="#C9C9C9"><path d="M189.937 12.305C189.873 12.755 189.831 13.209 189.812 13.663H210.212C210.137 13.525 210.049 13.395 209.948 13.274C206.461 8.749 204.585 9.141 201.901 9.026C201.007 8.989 200.4 8.974 196.838 8.974C194.932 8.974 192.86 8.979 190.842 8.984C190.581 9.692 190.329 10.379 190.206 10.937H200.66V12.305H189.937ZM210.372 15.032H189.823C189.844 15.397 189.878 15.757 189.927 16.112H208.899C209.745 16.112 210.218 15.63 210.372 15.032ZM190.992 19.843C190.992 19.843 194.139 27.6 203.227 27.738C208.659 27.738 213.326 24.497 215.446 19.843H190.992ZM203.226 0.762C198.203 0.762 193.833 3.532 191.525 7.627C193.297 7.624 195.069 7.623 196.841 7.622H196.842V7.62C200.994 7.62 201.148 7.639 201.96 7.673L202.462 7.691C204.211 7.75 206.361 7.938 208.053 9.224C208.972 9.922 210.297 11.461 211.087 12.557C211.818 13.571 212.029 14.737 211.532 15.854C211.075 16.881 210.091 17.493 208.899 17.493H190.25C190.25 17.493 190.361 17.966 190.527 18.488H215.984C216.436 17.123 216.667 15.694 216.669 14.256C216.669 6.803 210.651 0.762 203.226 0.762ZM230.178 21.232H233.346V15.897H235.657L238.496 21.231H241.993L238.811 15.382C240.515 14.648 241.459 13.156 241.459 11.099C241.459 8.108 239.492 6.183 236.09 6.183H230.178V21.232ZM233.346 13.34V8.784H235.482C237.31 8.784 238.196 9.599 238.196 11.099C238.196 12.59 237.31 13.34 235.496 13.34H233.346ZM246.843 21.444C248.503 21.444 249.579 20.717 250.127 19.667H250.215V21.232H253.17V13.619C253.17 10.929 250.903 9.798 248.401 9.798C245.708 9.798 243.938 11.091 243.507 13.148L246.389 13.384C246.602 12.634 247.267 12.083 248.386 12.083C249.447 12.083 250.054 12.619 250.054 13.546V13.589C250.054 14.317 249.286 14.412 247.332 14.604C245.109 14.81 243.112 15.559 243.112 18.079C243.112 20.312 244.699 21.444 246.843 21.444ZM247.735 19.284C246.777 19.284 246.089 18.836 246.089 17.976C246.089 17.095 246.813 16.661 247.911 16.506C248.591 16.411 249.703 16.249 250.076 15.999V17.198C250.076 18.38 249.103 19.284 247.735 19.284ZM255.588 21.232H258.705V9.945H255.588V21.232ZM257.154 8.49C258.083 8.49 258.844 7.777 258.844 6.903C258.844 6.036 258.083 5.323 257.154 5.323C256.232 5.323 255.472 6.036 255.472 6.903C255.472 7.777 256.232 8.49 257.154 8.49ZM264.317 6.183H261.201V21.232H264.317V6.183ZM269.031 21.232H272.323L274.254 14.133H274.392L276.324 21.232H279.624L282.674 9.945H279.528L277.816 17.484H277.721L275.878 9.945H272.783L270.969 17.528H270.867L269.125 9.945H265.972L269.031 21.232ZM287.54 21.444C289.201 21.444 290.276 20.717 290.825 19.667H290.913V21.232H293.868V13.619C293.868 10.929 291.6 9.798 289.099 9.798C286.406 9.798 284.636 11.091 284.205 13.148L287.087 13.384C287.299 12.634 287.965 12.083 289.084 12.083C290.145 12.083 290.752 12.619 290.752 13.546V13.589C290.752 14.317 289.984 14.412 288.03 14.604C285.806 14.81 283.809 15.559 283.809 18.079C283.809 20.312 285.397 21.444 287.54 21.444ZM288.433 19.284C287.475 19.284 286.787 18.836 286.787 17.976C286.787 17.095 287.511 16.661 288.609 16.506C289.289 16.411 290.401 16.249 290.774 15.999V17.198C290.774 18.38 289.801 19.284 288.433 19.284ZM297.808 25.464C300.127 25.464 301.356 24.273 301.992 22.451L306.36 9.96L303.06 9.945L300.712 18.233H300.595L298.269 9.945H294.991L299.022 21.554L298.839 22.033C298.429 23.09 297.647 23.141 296.549 22.804L295.847 25.141C296.293 25.331 297.018 25.464 297.808 25.464Z"/></g></svg>