<svg xmlns="http://www.w3.org/2000/svg" viewBox="518 0 110 28.5" fill="none" width="110" height="29" style="display:block"><g fill="#C9C9C9"><path d="M547.385 5.53146H552.143L556.178 15.1955H556.363L560.399 5.53146H565.156V21.1415H561.415V11.5535H561.283L557.466 21.0415H555.075L551.258 11.4995H551.126V21.1415H547.385V5.53146ZM566.677 21.1415V9.43446H570.472V21.1415H566.677ZM568.578 8.06946C568.069 8.07846 567.577 7.89246 567.205 7.55146C566.822 7.20146 566.63 6.77946 566.63 6.28546C566.63 5.79846 566.822 5.38146 567.206 5.03646C567.575 4.69046 568.068 4.50246 568.578 4.51046C569.116 4.51046 569.575 4.68546 569.951 5.03646C570.334 5.38146 570.525 5.79746 570.525 6.28546C570.525 6.77946 570.334 7.20146 569.951 7.55146C569.574 7.89646 569.117 8.06946 568.578 8.06946ZM575.807 14.4645V21.1415H572.012V9.43446H575.621V11.5835H575.753C576.017 10.8665 576.466 10.3055 577.102 9.89846C577.739 9.48746 578.496 9.28146 579.377 9.28146C580.214 9.28146 580.941 9.46646 581.557 9.83846C582.178 10.2045 582.679 10.7385 583 11.3775C583.347 12.0335 583.519 12.8005 583.512 13.6795V21.1415H579.718V14.4105C579.723 13.7605 579.556 13.2525 579.214 12.8865C578.877 12.5205 578.409 12.3375 577.808 12.3375C577.411 12.3375 577.059 12.4245 576.753 12.5965C576.453 12.7645 576.21 13.0175 576.056 13.3215C575.895 13.6365 575.813 14.0165 575.807 14.4645ZM591.716 9.43346V12.1775H584.196V9.43446H591.715L591.716 9.43346ZM585.771 6.62846H589.566V17.4595C589.566 17.6885 589.602 17.8735 589.674 18.0165C589.748 18.1495 589.865 18.2545 590.008 18.3135C590.153 18.3695 590.326 18.3975 590.528 18.3975C590.674 18.3975 590.825 18.3845 590.986 18.3595C591.151 18.3285 591.275 18.3035 591.358 18.2825L591.932 20.9735C591.752 21.0245 591.495 21.0875 591.164 21.1645C590.779 21.2475 590.386 21.2955 589.992 21.3085C589.103 21.3485 588.34 21.2475 587.704 21.0035C587.072 20.7555 586.588 20.3695 586.253 19.8455C585.921 19.3215 585.761 18.6635 585.771 17.8715V6.62846ZM596.827 5.53146V21.1415H593.033V5.53146H596.827ZM598.369 21.1415V9.43446H602.163V21.1415H598.369ZM600.27 8.06946C599.761 8.07846 599.268 7.89246 598.896 7.55146C598.514 7.20146 598.322 6.77946 598.322 6.28546C598.322 5.79846 598.514 5.38146 598.896 5.03646C599.266 4.69046 599.759 4.50146 600.27 4.51046C600.808 4.51046 601.266 4.68546 601.643 5.03646C602.026 5.38146 602.217 5.79746 602.217 6.28546C602.217 6.77946 602.026 7.20146 601.643 7.55146C601.266 7.89646 600.808 8.06946 600.27 8.06946ZM610.479 9.43446V12.1775H602.811V9.43446H610.479ZM604.41 21.1415V8.83946C604.41 7.93546 604.584 7.18546 604.93 6.59046C605.259 6.00746 605.763 5.53946 606.373 5.24946C606.989 4.94946 607.7 4.79946 608.508 4.79946C609.035 4.79946 609.531 4.84046 609.997 4.92146C610.468 4.99746 610.817 5.06646 611.044 5.12746L610.44 7.85646C610.272 7.80446 610.101 7.76546 609.927 7.74146C609.743 7.71246 609.556 7.69746 609.369 7.69646C608.923 7.69646 608.619 7.79246 608.453 7.98646C608.287 8.17846 608.205 8.44346 608.205 8.77846V21.1405H604.41V21.1415ZM613.749 25.5315C613.318 25.5335 612.887 25.4975 612.462 25.4245C612.107 25.3705 611.758 25.2815 611.422 25.1575L612.26 22.4515C612.633 22.5735 612.969 22.6445 613.269 22.6655C613.574 22.6855 613.835 22.6375 614.053 22.5205C614.275 22.4095 614.446 22.2075 614.565 21.9185L614.712 21.5675L610.475 9.43446H614.448L616.644 17.7875H616.768L618.995 9.43446H622.991L618.498 22.2615C618.296 22.8755 617.984 23.4485 617.575 23.9535C617.182 24.4465 616.673 24.8325 616.047 25.1115C615.426 25.3915 614.66 25.5315 613.749 25.5315ZM523.5 11.1485C523.516 9.01346 524.378 6.96846 525.903 5.44746H525.9L520.012 11.2315H520.014C519.993 11.2485 519.972 11.2665 519.953 11.2865C516.993 14.1905 516.656 18.7905 519.164 22.0805L525.11 16.2385L525.172 16.1805C524.064 14.7305 523.476 12.9615 523.5 11.1485ZM540.319 11.2315V3.35046C540.319 3.14046 540.145 2.96946 539.931 2.96846H531.908C529.677 2.96646 527.536 3.83746 525.961 5.39046L525.903 5.44746L525.894 5.45546C525.144 6.21046 524.82 7.50946 524.794 8.94246C526.973 8.65346 529.18 9.21946 530.938 10.5155C532.265 11.4875 533.27 12.8235 533.825 14.3555C534.263 15.5685 534.408 16.8655 534.249 18.1425C535.73 18.0495 537.108 17.7305 537.737 17.1875L537.796 17.1295L537.855 17.0755C539.435 15.5265 540.322 13.4235 540.319 11.2315ZM537.797 17.1335C535.497 19.3465 532.115 20.0785 529.081 19.0185C528.289 18.7425 527.544 18.3485 526.872 17.8515L520.864 23.7495C524.214 26.2055 528.891 25.8755 531.85 22.9745L537.797 17.1335Z"/></g></svg>