<svg xmlns="http://www.w3.org/2000/svg" viewBox="370 0 90 28.5" fill="none" width="90" height="29" style="display:block"><g fill="#C9C9C9"><path id="Vector_3" d="M408.79 19.1735C408.369 19.5995 407.862 19.9385 407.302 20.1675C406.742 20.3965 406.14 20.5125 405.532 20.5065C405.019 20.5215 404.508 20.4345 404.031 20.2495C403.554 20.0645 403.121 19.7865 402.759 19.4325C402.1 18.7615 401.72 17.8045 401.72 16.6625C401.72 14.3785 403.245 12.8155 405.532 12.8155C406.146 12.8065 406.753 12.9305 407.312 13.1775C407.871 13.4255 408.366 13.7895 408.764 14.2455L410.743 12.5385C409.453 11.0115 407.361 10.2215 405.374 10.2215C401.485 10.2215 398.728 12.8375 398.728 16.6845C398.728 18.5875 399.413 20.1905 400.569 21.3215C401.724 22.4535 403.371 23.1175 405.271 23.1175C407.738 23.1175 409.707 22.1405 410.812 20.9125L408.79 19.1735Z" fill="#C9C9C9"/>
<path id="Vector_4" d="M412.601 5.3435H415.547V22.9155H412.601V5.3435Z" fill="#C9C9C9"/>
<path id="Vector_5" d="M429.737 17.6615C429.786 17.2785 429.813 16.8935 429.818 16.5075C429.818 12.8635 427.373 10.2255 423.592 10.2255C422.758 10.2085 421.929 10.3595 421.157 10.6685C420.385 10.9765 419.686 11.4355 419.103 12.0175C417.998 13.1485 417.335 14.7515 417.335 16.6625C417.335 20.5575 420.149 23.1215 423.88 23.1215C426.384 23.1215 428.186 22.1315 429.267 20.7905L427.337 19.1235L427.241 19.0435C426.858 19.5115 426.37 19.8865 425.815 20.1395C425.259 20.3935 424.651 20.5185 424.038 20.5055C422.144 20.5055 420.778 19.4275 420.388 17.6615H429.737ZM420.437 15.3545C420.569 14.7975 420.838 14.2805 421.222 13.8495C421.541 13.5095 421.932 13.2415 422.367 13.0625C422.802 12.8845 423.272 12.7995 423.744 12.8145C425.427 12.8145 426.481 13.8415 426.844 15.3545H420.437Z" fill="#C9C9C9"/>
<path id="Vector_6" d="M438.925 10.1875V13.3925C438.584 13.3665 438.241 13.3405 438.032 13.3405C435.802 13.3405 434.537 14.9035 434.537 16.9545V22.9155H431.595V10.3655H434.537V12.2665H434.563C435.563 10.9335 436.996 10.1915 438.558 10.1915L438.925 10.1875Z" fill="#C9C9C9"/>
<path id="Vector_7" d="M445.784 17.6595L443.657 19.9685V22.9155H440.714V5.3435H443.657V16.1225L448.911 10.4055H452.406L447.783 15.4555L452.487 22.9155H449.176L445.839 17.6595H445.784Z" fill="#C9C9C9"/>
<path id="Vector_8" d="M391.717 5.06526L388.65 8.05826C388.553 8.15226 388.427 8.21226 388.292 8.22826C388.157 8.24326 388.02 8.21426 387.903 8.14526C386.697 7.43526 385.305 7.08126 383.897 7.12526C382.488 7.17026 381.123 7.61226 379.966 8.39726C379.254 8.88026 378.636 9.48326 378.141 10.1773C377.337 11.3073 376.885 12.6393 376.839 14.0133C376.793 15.3873 377.155 16.7453 377.882 17.9243C377.952 18.0373 377.981 18.1703 377.965 18.3023C377.949 18.4333 377.888 18.5563 377.792 18.6503L374.725 21.6433C374.663 21.7033 374.589 21.7503 374.506 21.7803C374.424 21.8103 374.337 21.8233 374.249 21.8173C374.162 21.8103 374.077 21.7863 374 21.7453C373.923 21.7033 373.856 21.6463 373.804 21.5783C372.145 19.3523 371.287 16.6523 371.365 13.9003C371.443 11.1493 372.453 8.50026 374.236 6.36726C374.781 5.71426 375.392 5.11826 376.061 4.58726C378.247 2.84726 380.961 1.86226 383.781 1.78626C386.601 1.71026 389.367 2.54626 391.648 4.16526C391.719 4.21626 391.778 4.28126 391.821 4.35626C391.863 4.43126 391.889 4.51426 391.895 4.60026C391.902 4.68526 391.889 4.77126 391.859 4.85226C391.828 4.93226 391.78 5.00526 391.717 5.06526Z" fill="#C9C9C9"/>
<path id="Vector_9" d="M391.715 23.4235L388.647 20.4305C388.551 20.3365 388.425 20.2775 388.289 20.2615C388.154 20.2455 388.017 20.2745 387.901 20.3435C386.763 21.0135 385.459 21.3675 384.131 21.3675C382.802 21.3675 381.498 21.0135 380.361 20.3435C380.244 20.2745 380.107 20.2455 379.972 20.2615C379.837 20.2775 379.711 20.3365 379.614 20.4305L376.547 23.4235C376.483 23.4845 376.433 23.5575 376.401 23.6385C376.369 23.7205 376.355 23.8075 376.362 23.8945C376.368 23.9815 376.394 24.0655 376.438 24.1415C376.481 24.2175 376.541 24.2835 376.614 24.3335C378.797 25.8845 381.428 26.7185 384.129 26.7185C386.829 26.7185 389.46 25.8845 391.644 24.3335C391.716 24.2835 391.777 24.2175 391.821 24.1425C391.865 24.0665 391.891 23.9825 391.898 23.8955C391.905 23.8085 391.892 23.7215 391.86 23.6395C391.828 23.5585 391.779 23.4845 391.715 23.4235Z" fill="#C9C9C9"/>
<path id="Vector_10" d="M384.136 17.8065C386.152 17.8065 387.786 16.2115 387.786 14.2455C387.786 12.2785 386.152 10.6845 384.136 10.6845C382.121 10.6845 380.487 12.2785 380.487 14.2455C380.487 16.2115 382.121 17.8065 384.136 17.8065Z" fill="#C9C9C9"/></g></svg>