<svg preserveAspectRatio="none" width="100%" height="100%" overflow="visible" style="display: block;" viewBox="0 0 40.0003 40.0003" fill="none" xmlns="http://www.w3.org/2000/svg">
<path id="Union" d="M17.6232 24.754C18.9359 23.4412 21.0644 23.4412 22.3771 24.754L27.131 29.5079C28.4436 30.8207 28.4437 32.9491 27.131 34.2618L22.3771 39.0157C21.0644 40.3284 18.9358 40.3285 17.6232 39.0157L12.8693 34.2618C11.5566 32.9491 11.5567 30.8207 12.8693 29.5079L17.6232 24.754ZM5.7384 12.8693C7.0511 11.5566 9.17954 11.5567 10.4923 12.8693L15.2462 17.6232C16.559 18.9359 16.559 21.0644 15.2462 22.3771L10.4923 27.131C9.17954 28.4436 7.05113 28.4437 5.7384 27.131L0.984493 22.3771C-0.328134 21.0644 -0.328195 18.9358 0.984493 17.6232L5.7384 12.8693ZM29.5079 12.8693C30.8207 11.5567 32.9491 11.5566 34.2618 12.8693L39.0157 17.6232C40.3285 18.9358 40.3284 21.0644 39.0157 22.3771L34.2618 27.131C32.9491 28.4437 30.8207 28.4436 29.5079 27.131L24.754 22.3771C23.4412 21.0644 23.4412 18.9359 24.754 17.6232L29.5079 12.8693ZM17.6232 0.984496C18.9358 -0.328195 21.0644 -0.328135 22.3771 0.984496L27.131 5.7384C28.4437 7.05117 28.4436 9.1795 27.131 10.4923L22.3771 15.2462C21.0644 16.559 18.9359 16.559 17.6232 15.2462L12.8693 10.4923C11.5567 9.1795 11.5566 7.05114 12.8693 5.7384L17.6232 0.984496Z" fill="url(#paint0_linear_0_20)"/>
<defs>
<linearGradient id="paint0_linear_0_20" x1="0.000118212" y1="20.0001" x2="40.0001" y2="23.5001" gradientUnits="userSpaceOnUse">
<stop offset="0.282324" stop-color="#6794FF"/>
<stop offset="0.633097" stop-color="#BCD0FF"/>
<stop offset="1" stop-color="#6794FF"/>
</linearGradient>
</defs>
</svg>
