<svg xmlns="http://www.w3.org/2000/svg" viewBox="0 0 96 28.5" fill="none" width="96" height="29" style="display:block"><g fill="#C9C9C9"><path d="M13.5736 0L22.8136 0.00400019C23.5126 0.00400019 24.1496 0.404 24.4466 1.031C26.3546 5.075 33.3836 19.963 36.2176 25.966C36.4776 26.518 36.4356 27.162 36.1056 27.675C35.7736 28.189 35.2006 28.5 34.5856 28.5H30.5696C29.2306 28.5 27.9526 27.948 27.0416 26.975C26.2726 26.153 25.3586 25.175 24.7406 24.513C24.2846 24.027 23.6456 23.751 22.9756 23.751L13.2626 23.748C12.5936 23.748 11.9546 24.024 11.4996 24.51L9.19761 26.972C8.28661 27.944 7.00861 28.497 5.66861 28.497H1.80161C1.18661 28.497 0.613612 28.187 0.281612 27.674C-0.0483883 27.16 -0.0913872 26.515 0.168613 25.964L11.9406 1.029C12.2376 0.402 12.8736 0.00100017 13.5736 0.00100017V0ZM28.3536 23.008C26.9306 19.618 21.6076 8.015 19.2856 2.969C19.0906 2.544 18.6626 2.27 18.1916 2.27C17.7196 2.27 17.2916 2.544 17.0966 2.969C14.7766 8.014 9.45561 19.615 8.03161 23.006C7.98261 23.128 7.99861 23.266 8.07261 23.374C8.14661 23.483 8.27061 23.549 8.40261 23.549H10.2156C10.9526 23.55 11.6506 23.215 12.1066 22.641L14.7476 19.314C15.2036 18.74 15.8996 18.405 16.6376 18.404L19.7486 18.408C20.4866 18.408 21.1836 18.742 21.6396 19.316L24.2806 22.643C24.7366 23.217 25.4326 23.552 26.1696 23.553H27.9826C28.1156 23.552 28.2396 23.486 28.3136 23.377C28.3876 23.268 28.4026 23.13 28.3536 23.008Z"/><path d="M52.9426 11.422C51.5836 11.422 50.4616 11.74 49.5986 12.355C48.7136 12.971 48.2396 13.84 48.0886 14.944H49.9226C50.0306 14.371 50.3756 13.904 50.8936 13.564C51.3896 13.225 52.0576 13.055 52.8346 13.055C53.7416 13.055 54.4316 13.246 54.9496 13.67C55.4456 14.094 55.6836 14.668 55.6836 15.389V16.152H52.3176C50.8076 16.152 49.6856 16.471 48.9086 17.065C48.1106 17.659 47.7216 18.55 47.7216 19.675C47.7216 20.693 48.1106 21.479 48.8876 22.072C49.6426 22.667 50.6566 22.963 51.9286 22.963C53.5896 22.963 54.8636 22.327 55.7696 21.075L55.9206 22.836H57.5176V15.516C57.5176 14.222 57.1066 13.204 56.3306 12.503C55.5326 11.782 54.3886 11.422 52.9426 11.422ZM55.7046 18.232C55.7046 19.187 55.3806 19.952 54.7336 20.523C54.0866 21.118 53.2016 21.415 52.0806 21.415C51.3246 21.415 50.7206 21.246 50.2676 20.905C49.8146 20.566 49.5986 20.121 49.5986 19.569C49.5986 18.317 50.4616 17.701 52.1666 17.701H55.7056L55.7046 18.232ZM61.3996 7.221C61.0546 7.221 60.7746 7.326 60.5366 7.56C60.3066 7.782 60.1806 8.09 60.1916 8.408C60.1916 8.748 60.2996 9.024 60.5366 9.257C60.7746 9.491 61.0546 9.597 61.3996 9.597C61.7446 9.597 62.0246 9.491 62.2636 9.258C62.5006 9.024 62.6076 8.748 62.6076 8.408C62.6076 8.07 62.5006 7.793 62.2626 7.56C62.0326 7.336 61.7216 7.214 61.3996 7.221ZM58.6586 13.225H60.4706V22.815H62.3046V11.57H58.6586V13.225ZM80.9266 12.121C80.1066 11.655 79.1366 11.442 78.0796 11.442C76.4176 11.442 75.1236 12.079 74.1526 13.373L73.9156 11.569H72.3186V27.228H74.1526V21.097C74.5426 21.67 75.0786 22.132 75.7066 22.433C76.3536 22.772 77.1736 22.942 78.0796 22.942C79.1366 22.942 80.0856 22.709 80.9056 22.22C81.7346 21.73 82.4136 21.026 82.8696 20.184C83.3436 19.314 83.5596 18.317 83.5596 17.192C83.5596 16.004 83.3436 14.965 82.8696 14.094C82.3936 13.246 81.7466 12.567 80.9266 12.121ZM80.6676 20.162C79.9786 20.926 79.0496 21.33 77.9066 21.33C77.1736 21.33 76.5266 21.16 75.9646 20.799C75.3806 20.437 74.9156 19.913 74.6276 19.293C74.3026 18.656 74.1526 17.956 74.1526 17.129C74.1526 16.344 74.3036 15.622 74.6276 14.986C74.9506 14.37 75.3826 13.883 75.9646 13.521C76.5266 13.182 77.1736 13.013 77.9066 13.013C79.0496 13.013 79.9786 13.394 80.6676 14.158C81.3586 14.922 81.7046 15.941 81.7046 17.15C81.7046 18.402 81.3586 19.399 80.6676 20.162ZM64.8316 13.756V22.815H66.6656V13.225H70.6356V11.57H67.0536C65.8236 11.57 64.8306 12.524 64.8306 13.755L64.8316 13.756ZM87.5286 7.369H85.6936V22.815H87.5286V7.369Z"/></g></svg>