<svg preserveAspectRatio="none" width="100%" height="100%" overflow="visible" style="display: block;" viewBox="0 0 840 28.5" fill="none" xmlns="http://www.w3.org/2000/svg">
<g id="Frame 1618874008">
<path id="Vector" fill="var(--fill-0, #C9C9C9)" d="M52.9426 11.422C51.5836 11.422 50.4616 11.74 49.5986 12.355C48.7136 12.971 48.2396 13.84 48.0886 14.944H49.9226C50.0306 14.371 50.3756 13.904 50.8936 13.564C51.3896 13.225 52.0576 13.055 52.8346 13.055C53.7416 13.055 54.4316 13.246 54.9496 13.67C55.4456 14.094 55.6836 14.668 55.6836 15.389V16.152H52.3176C50.8076 16.152 49.6856 16.471 48.9086 17.065C48.1106 17.659 47.7216 18.55 47.7216 19.675C47.7216 20.693 48.1106 21.479 48.8876 22.072C49.6426 22.667 50.6566 22.963 51.9286 22.963C53.5896 22.963 54.8636 22.327 55.7696 21.075L55.9206 22.836H57.5176V15.516C57.5176 14.222 57.1066 13.204 56.3306 12.503C55.5326 11.782 54.3886 11.422 52.9426 11.422ZM55.7046 18.232C55.7046 19.187 55.3806 19.952 54.7336 20.523C54.0866 21.118 53.2016 21.415 52.0806 21.415C51.3246 21.415 50.7206 21.246 50.2676 20.905C49.8146 20.566 49.5986 20.121 49.5986 19.569C49.5986 18.317 50.4616 17.701 52.1666 17.701H55.7056L55.7046 18.232ZM61.3996 7.221C61.0546 7.221 60.7746 7.326 60.5366 7.56C60.3066 7.782 60.1806 8.09 60.1916 8.408C60.1916 8.748 60.2996 9.024 60.5366 9.257C60.7746 9.491 61.0546 9.597 61.3996 9.597C61.7446 9.597 62.0246 9.491 62.2636 9.258C62.5006 9.024 62.6076 8.748 62.6076 8.408C62.6076 8.07 62.5006 7.793 62.2626 7.56C62.0326 7.336 61.7216 7.214 61.3996 7.221ZM58.6586 13.225H60.4706V22.815H62.3046V11.57H58.6586V13.225ZM80.9266 12.121C80.1066 11.655 79.1366 11.442 78.0796 11.442C76.4176 11.442 75.1236 12.079 74.1526 13.373L73.9156 11.569H72.3186V27.228H74.1526V21.097C74.5426 21.67 75.0786 22.132 75.7066 22.433C76.3536 22.772 77.1736 22.942 78.0796 22.942C79.1366 22.942 80.0856 22.709 80.9056 22.22C81.7346 21.73 82.4136 21.026 82.8696 20.184C83.3436 19.314 83.5596 18.317 83.5596 17.192C83.5596 16.004 83.3436 14.965 82.8696 14.094C82.3936 13.246 81.7466 12.567 80.9266 12.121ZM80.6676 20.162C79.9786 20.926 79.0496 21.33 77.9066 21.33C77.1736 21.33 76.5266 21.16 75.9646 20.799C75.3806 20.437 74.9156 19.913 74.6276 19.293C74.3026 18.656 74.1526 17.956 74.1526 17.129C74.1526 16.344 74.3036 15.622 74.6276 14.986C74.9506 14.37 75.3826 13.883 75.9646 13.521C76.5266 13.182 77.1736 13.013 77.9066 13.013C79.0496 13.013 79.9786 13.394 80.6676 14.158C81.3586 14.922 81.7046 15.941 81.7046 17.15C81.7046 18.402 81.3586 19.399 80.6676 20.162ZM64.8316 13.756V22.815H66.6656V13.225H70.6356V11.57H67.0536C65.8236 11.57 64.8306 12.524 64.8306 13.755L64.8316 13.756ZM87.5286 7.369H85.6936V22.815H87.5286V7.369Z"/><path fill="var(--fill-0, #C9C9C9)" d="M107.38 11.422C105.739 11.422 104.489 11.973 103.604 13.076L103.366 11.549H101.77V22.794H103.604V17.171C103.604 15.919 103.928 14.902 104.531 14.18C105.136 13.458 105.998 13.076 107.056 13.076C108.07 13.076 108.825 13.395 109.364 13.989C109.882 14.604 110.141 15.495 110.141 16.662V22.815H111.975V16.556C111.975 14.795 111.544 13.48 110.724 12.673C109.904 11.846 108.782 11.422 107.38 11.422ZM124.768 17.532C124.79 17.171 124.812 16.916 124.812 16.768C124.79 15.686 124.553 14.731 124.078 13.925C123.603 13.119 122.978 12.482 122.179 12.079C121.381 11.655 120.453 11.442 119.396 11.442C118.338 11.442 117.39 11.676 116.57 12.142C115.75 12.623 115.09 13.331 114.671 14.179C114.197 15.049 113.98 16.047 113.98 17.192C113.98 18.317 114.218 19.335 114.692 20.184C115.167 21.075 115.815 21.754 116.656 22.22C117.519 22.709 118.49 22.942 119.634 22.942C120.928 22.942 122.028 22.561 122.934 21.838C123.84 21.118 124.401 20.184 124.618 19.039H122.762C122.568 19.759 122.179 20.312 121.619 20.715C121.036 21.138 120.345 21.33 119.504 21.33C118.446 21.33 117.584 20.991 116.915 20.333C116.267 19.675 115.9 18.783 115.879 17.68V17.532H124.768ZM117.109 13.862C117.756 13.309 118.511 13.012 119.396 13.012C120.367 13.012 121.165 13.267 121.813 13.797C122.438 14.328 122.805 15.07 122.892 16.025H115.987C116.073 15.134 116.462 14.413 117.109 13.862ZM13.5736 0L22.8136 0.00400019C23.5126 0.00400019 24.1496 0.404 24.4466 1.031C26.3546 5.075 33.3836 19.963 36.2176 25.966C36.4776 26.518 36.4356 27.162 36.1056 27.675C35.7736 28.189 35.2006 28.5 34.5856 28.5H30.5696C29.2306 28.5 27.9526 27.948 27.0416 26.975C26.2726 26.153 25.3586 25.175 24.7406 24.513C24.2846 24.027 23.6456 23.751 22.9756 23.751L13.2626 23.748C12.5936 23.748 11.9546 24.024 11.4996 24.51L9.19761 26.972C8.28661 27.944 7.00861 28.497 5.66861 28.497H1.80161C1.18661 28.497 0.613612 28.187 0.281612 27.674C-0.0483883 27.16 -0.0913872 26.515 0.168613 25.964L11.9406 1.029C12.2376 0.402 12.8736 0.00100017 13.5736 0.00100017V0ZM28.3536 23.008C26.9306 19.618 21.6076 8.015 19.2856 2.969C19.0906 2.544 18.6626 2.27 18.1916 2.27C17.7196 2.27 17.2916 2.544 17.0966 2.969C14.7766 8.014 9.45561 19.615 8.03161 23.006C7.98261 23.128 7.99861 23.266 8.07261 23.374C8.14661 23.483 8.27061 23.549 8.40261 23.549H10.2156C10.9526 23.55 11.6506 23.215 12.1066 22.641L14.7476 19.314C15.2036 18.74 15.8996 18.405 16.6376 18.404L19.7486 18.408C20.4866 18.408 21.1836 18.742 21.6396 19.316L24.2806 22.643C24.7366 23.217 25.4326 23.552 26.1696 23.553H27.9826C28.1156 23.552 28.2396 23.486 28.3136 23.377C28.3876 23.268 28.4026 23.13 28.3536 23.008Z"/>
<path id="Vector_2" d="M189.937 12.305C189.873 12.755 189.831 13.209 189.812 13.663H210.212C210.137 13.525 210.049 13.395 209.948 13.274C206.461 8.749 204.585 9.141 201.901 9.026C201.007 8.989 200.4 8.974 196.838 8.974C194.932 8.974 192.86 8.979 190.842 8.984C190.581 9.692 190.329 10.379 190.206 10.937H200.66V12.305H189.937ZM210.372 15.032H189.823C189.844 15.397 189.878 15.757 189.927 16.112H208.899C209.745 16.112 210.218 15.63 210.372 15.032ZM190.992 19.843C190.992 19.843 194.139 27.6 203.227 27.738C208.659 27.738 213.326 24.497 215.446 19.843H190.992ZM203.226 0.762C198.203 0.762 193.833 3.532 191.525 7.627C193.297 7.624 195.069 7.623 196.841 7.622H196.842V7.62C200.994 7.62 201.148 7.639 201.96 7.673L202.462 7.691C204.211 7.75 206.361 7.938 208.053 9.224C208.972 9.922 210.297 11.461 211.087 12.557C211.818 13.571 212.029 14.737 211.532 15.854C211.075 16.881 210.091 17.493 208.899 17.493H190.25C190.25 17.493 190.361 17.966 190.527 18.488H215.984C216.436 17.123 216.667 15.694 216.669 14.256C216.669 6.803 210.651 0.762 203.226 0.762ZM230.178 21.232H233.346V15.897H235.657L238.496 21.231H241.993L238.811 15.382C240.515 14.648 241.459 13.156 241.459 11.099C241.459 8.108 239.492 6.183 236.09 6.183H230.178V21.232ZM233.346 13.34V8.784H235.482C237.31 8.784 238.196 9.599 238.196 11.099C238.196 12.59 237.31 13.34 235.496 13.34H233.346ZM246.843 21.444C248.503 21.444 249.579 20.717 250.127 19.667H250.215V21.232H253.17V13.619C253.17 10.929 250.903 9.798 248.401 9.798C245.708 9.798 243.938 11.091 243.507 13.148L246.389 13.384C246.602 12.634 247.267 12.083 248.386 12.083C249.447 12.083 250.054 12.619 250.054 13.546V13.589C250.054 14.317 249.286 14.412 247.332 14.604C245.109 14.81 243.112 15.559 243.112 18.079C243.112 20.312 244.699 21.444 246.843 21.444ZM247.735 19.284C246.777 19.284 246.089 18.836 246.089 17.976C246.089 17.095 246.813 16.661 247.911 16.506C248.591 16.411 249.703 16.249 250.076 15.999V17.198C250.076 18.38 249.103 19.284 247.735 19.284ZM255.588 21.232H258.705V9.945H255.588V21.232ZM257.154 8.49C258.083 8.49 258.844 7.777 258.844 6.903C258.844 6.036 258.083 5.323 257.154 5.323C256.232 5.323 255.472 6.036 255.472 6.903C255.472 7.777 256.232 8.49 257.154 8.49ZM264.317 6.183H261.201V21.232H264.317V6.183ZM269.031 21.232H272.323L274.254 14.133H274.392L276.324 21.232H279.624L282.674 9.945H279.528L277.816 17.484H277.721L275.878 9.945H272.783L270.969 17.528H270.867L269.125 9.945H265.972L269.031 21.232ZM287.54 21.444C289.201 21.444 290.276 20.717 290.825 19.667H290.913V21.232H293.868V13.619C293.868 10.929 291.6 9.798 289.099 9.798C286.406 9.798 284.636 11.091 284.205 13.148L287.087 13.384C287.299 12.634 287.965 12.083 289.084 12.083C290.145 12.083 290.752 12.619 290.752 13.546V13.589C290.752 14.317 289.984 14.412 288.03 14.604C285.806 14.81 283.809 15.559 283.809 18.079C283.809 20.312 285.397 21.444 287.54 21.444ZM288.433 19.284C287.475 19.284 286.787 18.836 286.787 17.976C286.787 17.095 287.511 16.661 288.609 16.506C289.289 16.411 290.401 16.249 290.774 15.999V17.198C290.774 18.38 289.801 19.284 288.433 19.284ZM297.808 25.464C300.127 25.464 301.356 24.273 301.992 22.451L306.36 9.96L303.06 9.945L300.712 18.233H300.595L298.269 9.945H294.991L299.022 21.554L298.839 22.033C298.429 23.09 297.647 23.141 296.549 22.804L295.847 25.141C296.293 25.331 297.018 25.464 297.808 25.464Z" fill="var(--fill-0, #C9C9C9)"/>
<g id="ss3377986558_1">
<path id="Vector_3" d="M408.79 19.1735C408.369 19.5995 407.862 19.9385 407.302 20.1675C406.742 20.3965 406.14 20.5125 405.532 20.5065C405.019 20.5215 404.508 20.4345 404.031 20.2495C403.554 20.0645 403.121 19.7865 402.759 19.4325C402.1 18.7615 401.72 17.8045 401.72 16.6625C401.72 14.3785 403.245 12.8155 405.532 12.8155C406.146 12.8065 406.753 12.9305 407.312 13.1775C407.871 13.4255 408.366 13.7895 408.764 14.2455L410.743 12.5385C409.453 11.0115 407.361 10.2215 405.374 10.2215C401.485 10.2215 398.728 12.8375 398.728 16.6845C398.728 18.5875 399.413 20.1905 400.569 21.3215C401.724 22.4535 403.371 23.1175 405.271 23.1175C407.738 23.1175 409.707 22.1405 410.812 20.9125L408.79 19.1735Z" fill="var(--fill-0, #C9C9C9)"/>
<path id="Vector_4" d="M412.601 5.3435H415.547V22.9155H412.601V5.3435Z" fill="var(--fill-0, #C9C9C9)"/>
<path id="Vector_5" d="M429.737 17.6615C429.786 17.2785 429.813 16.8935 429.818 16.5075C429.818 12.8635 427.373 10.2255 423.592 10.2255C422.758 10.2085 421.929 10.3595 421.157 10.6685C420.385 10.9765 419.686 11.4355 419.103 12.0175C417.998 13.1485 417.335 14.7515 417.335 16.6625C417.335 20.5575 420.149 23.1215 423.88 23.1215C426.384 23.1215 428.186 22.1315 429.267 20.7905L427.337 19.1235L427.241 19.0435C426.858 19.5115 426.37 19.8865 425.815 20.1395C425.259 20.3935 424.651 20.5185 424.038 20.5055C422.144 20.5055 420.778 19.4275 420.388 17.6615H429.737ZM420.437 15.3545C420.569 14.7975 420.838 14.2805 421.222 13.8495C421.541 13.5095 421.932 13.2415 422.367 13.0625C422.802 12.8845 423.272 12.7995 423.744 12.8145C425.427 12.8145 426.481 13.8415 426.844 15.3545H420.437Z" fill="var(--fill-0, #C9C9C9)"/>
<path id="Vector_6" d="M438.925 10.1875V13.3925C438.584 13.3665 438.241 13.3405 438.032 13.3405C435.802 13.3405 434.537 14.9035 434.537 16.9545V22.9155H431.595V10.3655H434.537V12.2665H434.563C435.563 10.9335 436.996 10.1915 438.558 10.1915L438.925 10.1875Z" fill="var(--fill-0, #C9C9C9)"/>
<path id="Vector_7" d="M445.784 17.6595L443.657 19.9685V22.9155H440.714V5.3435H443.657V16.1225L448.911 10.4055H452.406L447.783 15.4555L452.487 22.9155H449.176L445.839 17.6595H445.784Z" fill="var(--fill-0, #C9C9C9)"/>
<path id="Vector_8" d="M391.717 5.06526L388.65 8.05826C388.553 8.15226 388.427 8.21226 388.292 8.22826C388.157 8.24326 388.02 8.21426 387.903 8.14526C386.697 7.43526 385.305 7.08126 383.897 7.12526C382.488 7.17026 381.123 7.61226 379.966 8.39726C379.254 8.88026 378.636 9.48326 378.141 10.1773C377.337 11.3073 376.885 12.6393 376.839 14.0133C376.793 15.3873 377.155 16.7453 377.882 17.9243C377.952 18.0373 377.981 18.1703 377.965 18.3023C377.949 18.4333 377.888 18.5563 377.792 18.6503L374.725 21.6433C374.663 21.7033 374.589 21.7503 374.506 21.7803C374.424 21.8103 374.337 21.8233 374.249 21.8173C374.162 21.8103 374.077 21.7863 374 21.7453C373.923 21.7033 373.856 21.6463 373.804 21.5783C372.145 19.3523 371.287 16.6523 371.365 13.9003C371.443 11.1493 372.453 8.50026 374.236 6.36726C374.781 5.71426 375.392 5.11826 376.061 4.58726C378.247 2.84726 380.961 1.86226 383.781 1.78626C386.601 1.71026 389.367 2.54626 391.648 4.16526C391.719 4.21626 391.778 4.28126 391.821 4.35626C391.863 4.43126 391.889 4.51426 391.895 4.60026C391.902 4.68526 391.889 4.77126 391.859 4.85226C391.828 4.93226 391.78 5.00526 391.717 5.06526Z" fill="var(--fill-0, #C9C9C9)"/>
<path id="Vector_9" d="M391.715 23.4235L388.647 20.4305C388.551 20.3365 388.425 20.2775 388.289 20.2615C388.154 20.2455 388.017 20.2745 387.901 20.3435C386.763 21.0135 385.459 21.3675 384.131 21.3675C382.802 21.3675 381.498 21.0135 380.361 20.3435C380.244 20.2745 380.107 20.2455 379.972 20.2615C379.837 20.2775 379.711 20.3365 379.614 20.4305L376.547 23.4235C376.483 23.4845 376.433 23.5575 376.401 23.6385C376.369 23.7205 376.355 23.8075 376.362 23.8945C376.368 23.9815 376.394 24.0655 376.438 24.1415C376.481 24.2175 376.541 24.2835 376.614 24.3335C378.797 25.8845 381.428 26.7185 384.129 26.7185C386.829 26.7185 389.46 25.8845 391.644 24.3335C391.716 24.2835 391.777 24.2175 391.821 24.1425C391.865 24.0665 391.891 23.9825 391.898 23.8955C391.905 23.8085 391.892 23.7215 391.86 23.6395C391.828 23.5585 391.779 23.4845 391.715 23.4235Z" fill="var(--fill-0, #C9C9C9)"/>
<path id="Vector_10" d="M384.136 17.8065C386.152 17.8065 387.786 16.2115 387.786 14.2455C387.786 12.2785 386.152 10.6845 384.136 10.6845C382.121 10.6845 380.487 12.2785 380.487 14.2455C380.487 16.2115 382.121 17.8065 384.136 17.8065Z" fill="var(--fill-0, #C9C9C9)"/>
</g>
<path id="Vector_11" d="M547.385 5.53146H552.143L556.178 15.1955H556.363L560.399 5.53146H565.156V21.1415H561.415V11.5535H561.283L557.466 21.0415H555.075L551.258 11.4995H551.126V21.1415H547.385V5.53146ZM566.677 21.1415V9.43446H570.472V21.1415H566.677ZM568.578 8.06946C568.069 8.07846 567.577 7.89246 567.205 7.55146C566.822 7.20146 566.63 6.77946 566.63 6.28546C566.63 5.79846 566.822 5.38146 567.206 5.03646C567.575 4.69046 568.068 4.50246 568.578 4.51046C569.116 4.51046 569.575 4.68546 569.951 5.03646C570.334 5.38146 570.525 5.79746 570.525 6.28546C570.525 6.77946 570.334 7.20146 569.951 7.55146C569.574 7.89646 569.117 8.06946 568.578 8.06946ZM575.807 14.4645V21.1415H572.012V9.43446H575.621V11.5835H575.753C576.017 10.8665 576.466 10.3055 577.102 9.89846C577.739 9.48746 578.496 9.28146 579.377 9.28146C580.214 9.28146 580.941 9.46646 581.557 9.83846C582.178 10.2045 582.679 10.7385 583 11.3775C583.347 12.0335 583.519 12.8005 583.512 13.6795V21.1415H579.718V14.4105C579.723 13.7605 579.556 13.2525 579.214 12.8865C578.877 12.5205 578.409 12.3375 577.808 12.3375C577.411 12.3375 577.059 12.4245 576.753 12.5965C576.453 12.7645 576.21 13.0175 576.056 13.3215C575.895 13.6365 575.813 14.0165 575.807 14.4645ZM591.716 9.43346V12.1775H584.196V9.43446H591.715L591.716 9.43346ZM585.771 6.62846H589.566V17.4595C589.566 17.6885 589.602 17.8735 589.674 18.0165C589.748 18.1495 589.865 18.2545 590.008 18.3135C590.153 18.3695 590.326 18.3975 590.528 18.3975C590.674 18.3975 590.825 18.3845 590.986 18.3595C591.151 18.3285 591.275 18.3035 591.358 18.2825L591.932 20.9735C591.752 21.0245 591.495 21.0875 591.164 21.1645C590.779 21.2475 590.386 21.2955 589.992 21.3085C589.103 21.3485 588.34 21.2475 587.704 21.0035C587.072 20.7555 586.588 20.3695 586.253 19.8455C585.921 19.3215 585.761 18.6635 585.771 17.8715V6.62846ZM596.827 5.53146V21.1415H593.033V5.53146H596.827ZM598.369 21.1415V9.43446H602.163V21.1415H598.369ZM600.27 8.06946C599.761 8.07846 599.268 7.89246 598.896 7.55146C598.514 7.20146 598.322 6.77946 598.322 6.28546C598.322 5.79846 598.514 5.38146 598.896 5.03646C599.266 4.69046 599.759 4.50146 600.27 4.51046C600.808 4.51046 601.266 4.68546 601.643 5.03646C602.026 5.38146 602.217 5.79746 602.217 6.28546C602.217 6.77946 602.026 7.20146 601.643 7.55146C601.266 7.89646 600.808 8.06946 600.27 8.06946ZM610.479 9.43446V12.1775H602.811V9.43446H610.479ZM604.41 21.1415V8.83946C604.41 7.93546 604.584 7.18546 604.93 6.59046C605.259 6.00746 605.763 5.53946 606.373 5.24946C606.989 4.94946 607.7 4.79946 608.508 4.79946C609.035 4.79946 609.531 4.84046 609.997 4.92146C610.468 4.99746 610.817 5.06646 611.044 5.12746L610.44 7.85646C610.272 7.80446 610.101 7.76546 609.927 7.74146C609.743 7.71246 609.556 7.69746 609.369 7.69646C608.923 7.69646 608.619 7.79246 608.453 7.98646C608.287 8.17846 608.205 8.44346 608.205 8.77846V21.1405H604.41V21.1415ZM613.749 25.5315C613.318 25.5335 612.887 25.4975 612.462 25.4245C612.107 25.3705 611.758 25.2815 611.422 25.1575L612.26 22.4515C612.633 22.5735 612.969 22.6445 613.269 22.6655C613.574 22.6855 613.835 22.6375 614.053 22.5205C614.275 22.4095 614.446 22.2075 614.565 21.9185L614.712 21.5675L610.475 9.43446H614.448L616.644 17.7875H616.768L618.995 9.43446H622.991L618.498 22.2615C618.296 22.8755 617.984 23.4485 617.575 23.9535C617.182 24.4465 616.673 24.8325 616.047 25.1115C615.426 25.3915 614.66 25.5315 613.749 25.5315ZM523.5 11.1485C523.516 9.01346 524.378 6.96846 525.903 5.44746H525.9L520.012 11.2315H520.014C519.993 11.2485 519.972 11.2665 519.953 11.2865C516.993 14.1905 516.656 18.7905 519.164 22.0805L525.11 16.2385L525.172 16.1805C524.064 14.7305 523.476 12.9615 523.5 11.1485ZM540.319 11.2315V3.35046C540.319 3.14046 540.145 2.96946 539.931 2.96846H531.908C529.677 2.96646 527.536 3.83746 525.961 5.39046L525.903 5.44746L525.894 5.45546C525.144 6.21046 524.82 7.50946 524.794 8.94246C526.973 8.65346 529.18 9.21946 530.938 10.5155C532.265 11.4875 533.27 12.8235 533.825 14.3555C534.263 15.5685 534.408 16.8655 534.249 18.1425C535.73 18.0495 537.108 17.7305 537.737 17.1875L537.796 17.1295L537.855 17.0755C539.435 15.5265 540.322 13.4235 540.319 11.2315ZM537.797 17.1335C535.497 19.3465 532.115 20.0785 529.081 19.0185C528.289 18.7425 527.544 18.3485 526.872 17.8515L520.864 23.7495C524.214 26.2055 528.891 25.8755 531.85 22.9745L537.797 17.1335Z" fill="var(--fill-0, #C9C9C9)"/>
<path id="Vector_12" d="M726.942 4.4365H715.008H715.48V7.7075H719.497V21.7815H722.899V7.7075H726.942V4.4365ZM730.195 11.5235V9.3935H727.016V21.7815H730.195V15.8585C730.195 13.2575 732.291 12.5135 733.943 12.7115V9.1445C732.389 9.1445 730.836 9.8375 730.195 11.5225V11.5235ZM737.344 7.9065C738.429 7.9065 739.316 7.0135 739.316 5.9485C739.316 4.8835 738.429 3.9665 737.344 3.9665C736.285 3.9665 735.397 4.8835 735.397 5.9485C735.408 7.0255 736.273 7.8945 737.344 7.9065ZM735.766 21.7815H738.947V9.3935H735.766V21.7815ZM751.026 9.3925V10.9285C750.163 9.7645 748.832 9.0455 747.082 9.0455C743.582 9.0455 740.943 11.9205 740.943 15.3885C740.943 18.8815 743.582 21.7315 747.082 21.7315C748.832 21.7315 750.163 21.0135 751.026 19.8485V21.1865C751.026 23.1435 749.793 24.2345 747.797 24.2345C745.898 24.2345 745.085 23.4665 744.567 22.4995L741.856 24.0605C742.94 26.0675 745.06 27.0835 747.698 27.0835C750.952 27.0835 754.131 25.2495 754.131 21.1865V9.3925H751.026ZM747.575 18.7825C745.578 18.7825 744.124 17.3715 744.124 15.3885C744.124 13.4315 745.578 12.0185 747.575 12.0185C749.571 12.0185 751.026 13.4305 751.026 15.3885C751.026 17.3715 749.571 18.7825 747.575 18.7825ZM766.187 9.3925V10.9285C765.324 9.7645 763.993 9.0455 762.243 9.0455C758.742 9.0455 756.105 11.9205 756.105 15.3885C756.105 18.8815 758.742 21.7315 762.243 21.7315C763.993 21.7315 765.324 21.0135 766.187 19.8485V21.1865C766.187 23.1435 764.954 24.2345 762.958 24.2345C761.059 24.2345 760.245 23.4665 759.728 22.4995L757.016 24.0605C758.101 26.0675 760.221 27.0835 762.858 27.0835C766.112 27.0835 769.292 25.2495 769.292 21.1865V9.3925H766.187ZM762.735 18.7825C760.739 18.7825 759.284 17.3715 759.284 15.3885C759.284 13.4315 760.739 12.0185 762.735 12.0185C764.732 12.0185 766.187 13.4305 766.187 15.3885C766.187 17.3715 764.731 18.7825 762.735 18.7825ZM774.592 16.8995H783.884C783.964 16.4665 784.006 16.0265 784.008 15.5865C784.008 11.9445 781.419 9.0455 777.771 9.0455C773.901 9.0455 771.264 11.8945 771.264 15.5865C771.264 19.2785 773.877 22.1275 778.018 22.1275C780.384 22.1275 782.232 21.1615 783.391 19.4765L780.827 17.9905C780.285 18.7095 779.3 19.2295 778.066 19.2295C776.391 19.2295 775.035 18.5355 774.592 16.8995ZM774.542 14.4215C774.912 12.8365 776.071 11.9195 777.771 11.9195C779.102 11.9195 780.433 12.6385 780.827 14.4215H774.542ZM789.073 11.5235V9.3935H785.894V21.7815H789.073V15.8585C789.073 13.2575 791.168 12.5135 792.82 12.7115V9.1445C791.267 9.1445 789.714 9.8375 789.073 11.5225V11.5235ZM794.027 22.1035C794.583 22.1035 795.116 21.8815 795.509 21.4865C795.902 21.0915 796.123 20.5555 796.122 19.9965C796.123 19.4385 795.902 18.9025 795.509 18.5075C795.116 18.1125 794.583 17.8905 794.027 17.8915C793.471 17.8905 792.938 18.1125 792.545 18.5075C792.152 18.9025 791.932 19.4385 791.932 19.9965C791.931 20.5555 792.152 21.0915 792.545 21.4865C792.938 21.8815 793.471 22.1035 794.027 22.1035ZM807.389 4.4365V10.8545C806.501 9.7145 805.195 9.0455 803.396 9.0455C800.093 9.0455 797.381 11.8945 797.381 15.5865C797.381 19.2785 800.093 22.1275 803.396 22.1275C805.195 22.1275 806.501 21.4585 807.389 20.3195V21.7815H810.568V4.4365H807.389ZM803.987 19.0805C802.015 19.0805 800.561 17.6685 800.561 15.5865C800.561 13.5055 802.015 12.0935 803.987 12.0935C805.934 12.0935 807.389 13.5045 807.389 15.5865C807.389 17.6675 805.934 19.0805 803.987 19.0805ZM815.67 16.8995H824.963C825.043 16.4665 825.084 16.0265 825.086 15.5865C825.086 11.9445 822.498 9.0455 818.85 9.0455C814.98 9.0455 812.343 11.8945 812.343 15.5865C812.343 19.2785 814.955 22.1275 819.097 22.1275C821.463 22.1275 823.312 21.1615 824.47 19.4765L821.907 17.9905C821.365 18.7095 820.378 19.2295 819.146 19.2295C817.469 19.2295 816.114 18.5355 815.67 16.8995ZM815.621 14.4215C815.991 12.8365 817.149 11.9195 818.85 11.9195C820.181 11.9195 821.512 12.6385 821.907 14.4215H815.621ZM834.675 9.3925L831.668 18.0645L828.685 9.3925H825.185L829.868 21.7805H833.492L838.176 9.3925H834.675ZM695.022 9.6985L699.78 1.4165L711.567 21.9415H687.991L692.747 13.6595L696.112 15.6125L694.72 18.0345H704.837L699.779 9.2275L698.387 11.6505L695.022 9.6985Z" fill="var(--fill-0, #C9C9C9)"/>
</g>
</svg>
