<svg xmlns="http://www.w3.org/2000/svg" viewBox="687 0 155 28.5" fill="none" width="155" height="29" style="display:block"><g fill="#C9C9C9"><path d="M726.942 4.4365H715.008H715.48V7.7075H719.497V21.7815H722.899V7.7075H726.942V4.4365ZM730.195 11.5235V9.3935H727.016V21.7815H730.195V15.8585C730.195 13.2575 732.291 12.5135 733.943 12.7115V9.1445C732.389 9.1445 730.836 9.8375 730.195 11.5225V11.5235ZM737.344 7.9065C738.429 7.9065 739.316 7.0135 739.316 5.9485C739.316 4.8835 738.429 3.9665 737.344 3.9665C736.285 3.9665 735.397 4.8835 735.397 5.9485C735.408 7.0255 736.273 7.8945 737.344 7.9065ZM735.766 21.7815H738.947V9.3935H735.766V21.7815ZM751.026 9.3925V10.9285C750.163 9.7645 748.832 9.0455 747.082 9.0455C743.582 9.0455 740.943 11.9205 740.943 15.3885C740.943 18.8815 743.582 21.7315 747.082 21.7315C748.832 21.7315 750.163 21.0135 751.026 19.8485V21.1865C751.026 23.1435 749.793 24.2345 747.797 24.2345C745.898 24.2345 745.085 23.4665 744.567 22.4995L741.856 24.0605C742.94 26.0675 745.06 27.0835 747.698 27.0835C750.952 27.0835 754.131 25.2495 754.131 21.1865V9.3925H751.026ZM747.575 18.7825C745.578 18.7825 744.124 17.3715 744.124 15.3885C744.124 13.4315 745.578 12.0185 747.575 12.0185C749.571 12.0185 751.026 13.4305 751.026 15.3885C751.026 17.3715 749.571 18.7825 747.575 18.7825ZM766.187 9.3925V10.9285C765.324 9.7645 763.993 9.0455 762.243 9.0455C758.742 9.0455 756.105 11.9205 756.105 15.3885C756.105 18.8815 758.742 21.7315 762.243 21.7315C763.993 21.7315 765.324 21.0135 766.187 19.8485V21.1865C766.187 23.1435 764.954 24.2345 762.958 24.2345C761.059 24.2345 760.245 23.4665 759.728 22.4995L757.016 24.0605C758.101 26.0675 760.221 27.0835 762.858 27.0835C766.112 27.0835 769.292 25.2495 769.292 21.1865V9.3925H766.187ZM762.735 18.7825C760.739 18.7825 759.284 17.3715 759.284 15.3885C759.284 13.4315 760.739 12.0185 762.735 12.0185C764.732 12.0185 766.187 13.4305 766.187 15.3885C766.187 17.3715 764.731 18.7825 762.735 18.7825ZM774.592 16.8995H783.884C783.964 16.4665 784.006 16.0265 784.008 15.5865C784.008 11.9445 781.419 9.0455 777.771 9.0455C773.901 9.0455 771.264 11.8945 771.264 15.5865C771.264 19.2785 773.877 22.1275 778.018 22.1275C780.384 22.1275 782.232 21.1615 783.391 19.4765L780.827 17.9905C780.285 18.7095 779.3 19.2295 778.066 19.2295C776.391 19.2295 775.035 18.5355 774.592 16.8995ZM774.542 14.4215C774.912 12.8365 776.071 11.9195 777.771 11.9195C779.102 11.9195 780.433 12.6385 780.827 14.4215H774.542ZM789.073 11.5235V9.3935H785.894V21.7815H789.073V15.8585C789.073 13.2575 791.168 12.5135 792.82 12.7115V9.1445C791.267 9.1445 789.714 9.8375 789.073 11.5225V11.5235ZM794.027 22.1035C794.583 22.1035 795.116 21.8815 795.509 21.4865C795.902 21.0915 796.123 20.5555 796.122 19.9965C796.123 19.4385 795.902 18.9025 795.509 18.5075C795.116 18.1125 794.583 17.8905 794.027 17.8915C793.471 17.8905 792.938 18.1125 792.545 18.5075C792.152 18.9025 791.932 19.4385 791.932 19.9965C791.931 20.5555 792.152 21.0915 792.545 21.4865C792.938 21.8815 793.471 22.1035 794.027 22.1035ZM807.389 4.4365V10.8545C806.501 9.7145 805.195 9.0455 803.396 9.0455C800.093 9.0455 797.381 11.8945 797.381 15.5865C797.381 19.2785 800.093 22.1275 803.396 22.1275C805.195 22.1275 806.501 21.4585 807.389 20.3195V21.7815H810.568V4.4365H807.389ZM803.987 19.0805C802.015 19.0805 800.561 17.6685 800.561 15.5865C800.561 13.5055 802.015 12.0935 803.987 12.0935C805.934 12.0935 807.389 13.5045 807.389 15.5865C807.389 17.6675 805.934 19.0805 803.987 19.0805ZM815.67 16.8995H824.963C825.043 16.4665 825.084 16.0265 825.086 15.5865C825.086 11.9445 822.498 9.0455 818.85 9.0455C814.98 9.0455 812.343 11.8945 812.343 15.5865C812.343 19.2785 814.955 22.1275 819.097 22.1275C821.463 22.1275 823.312 21.1615 824.47 19.4765L821.907 17.9905C821.365 18.7095 820.378 19.2295 819.146 19.2295C817.469 19.2295 816.114 18.5355 815.67 16.8995ZM815.621 14.4215C815.991 12.8365 817.149 11.9195 818.85 11.9195C820.181 11.9195 821.512 12.6385 821.907 14.4215H815.621ZM834.675 9.3925L831.668 18.0645L828.685 9.3925H825.185L829.868 21.7805H833.492L838.176 9.3925H834.675ZM695.022 9.6985L699.78 1.4165L711.567 21.9415H687.991L692.747 13.6595L696.112 15.6125L694.72 18.0345H704.837L699.779 9.2275L698.387 11.6505L695.022 9.6985Z"/></g></svg>