<svg width="82" height="25" viewBox="0 0 82 25" fill="none" xmlns="http://www.w3.org/2000/svg">
<path d="M37.43 17.392C37.009 17.818 36.502 18.157 35.942 18.386C35.382 18.615 34.78 18.731 34.172 18.725C33.659 18.74 33.148 18.653 32.671 18.468C32.194 18.283 31.761 18.005 31.399 17.651C30.74 16.98 30.36 16.023 30.36 14.881C30.36 12.597 31.885 11.034 34.172 11.034C34.786 11.025 35.393 11.149 35.952 11.396C36.511 11.644 37.006 12.008 37.404 12.464L39.383 10.757C38.093 9.23 36.001 8.44 34.014 8.44C30.125 8.44 27.368 11.056 27.368 14.903C27.368 16.806 28.053 18.409 29.209 19.54C30.364 20.672 32.011 21.336 33.911 21.336C36.378 21.336 38.347 20.359 39.452 19.131L37.43 17.392Z" fill="#C9C9C9"/>
<path d="M41.241 3.56201H44.187V21.134H41.241V3.56201Z" fill="#C9C9C9"/>
<path d="M58.377 15.88C58.426 15.497 58.453 15.112 58.458 14.726C58.458 11.082 56.013 8.44398 52.232 8.44398C51.398 8.42698 50.569 8.57798 49.797 8.88698C49.025 9.19498 48.326 9.65398 47.743 10.236C46.638 11.367 45.975 12.97 45.975 14.881C45.975 18.776 48.789 21.34 52.52 21.34C55.024 21.34 56.826 20.35 57.907 19.009L55.977 17.342L55.881 17.262C55.498 17.73 55.01 18.105 54.455 18.358C53.899 18.612 53.291 18.737 52.678 18.724C50.784 18.724 49.418 17.646 49.028 15.88H58.377ZM49.077 13.573C49.209 13.016 49.478 12.499 49.862 12.068C50.181 11.728 50.572 11.46 51.007 11.281C51.442 11.103 51.912 11.018 52.384 11.033C54.067 11.033 55.121 12.06 55.484 13.573H49.077Z" fill="#C9C9C9"/>
<path d="M67.565 8.40601V11.611C67.224 11.585 66.881 11.559 66.672 11.559C64.442 11.559 63.177 13.122 63.177 15.173V21.134H60.235V8.58401H63.177V10.485H63.203C64.203 9.15201 65.636 8.41001 67.198 8.41001L67.565 8.40601Z" fill="#C9C9C9"/>
<path d="M74.424 15.878L72.297 18.187V21.134H69.354V3.56201H72.297V14.341L77.551 8.62401H81.046L76.423 13.674L81.127 21.134H77.816L74.479 15.878H74.424Z" fill="#C9C9C9"/>
<path d="M20.3569 3.28376L17.2899 6.27676C17.1929 6.37076 17.0669 6.43076 16.9319 6.44676C16.7969 6.46176 16.6599 6.43276 16.5429 6.36376C15.3369 5.65376 13.9449 5.29976 12.5369 5.34376C11.1279 5.38876 9.76288 5.83076 8.60588 6.61576C7.89388 7.09876 7.27588 7.70176 6.78088 8.39576C5.97688 9.52576 5.52488 10.8578 5.47888 12.2318C5.43288 13.6058 5.79488 14.9638 6.52188 16.1428C6.59188 16.2558 6.62088 16.3888 6.60488 16.5208C6.58888 16.6518 6.52788 16.7748 6.43188 16.8688L3.36488 19.8618C3.30288 19.9218 3.22888 19.9688 3.14588 19.9988C3.06388 20.0288 2.97688 20.0418 2.88888 20.0358C2.80188 20.0288 2.71688 20.0048 2.63988 19.9638C2.56288 19.9218 2.49588 19.8648 2.44388 19.7968C0.784885 17.5708 -0.0731152 14.8708 0.00488481 12.1188C0.0828848 9.36776 1.09288 6.71876 2.87588 4.58576C3.42088 3.93276 4.03188 3.33676 4.70088 2.80576C6.88688 1.06576 9.60088 0.0807594 12.4209 0.00475937C15.2409 -0.0712406 18.0069 0.76476 20.2879 2.38376C20.3589 2.43476 20.4179 2.49976 20.4609 2.57476C20.5029 2.64976 20.5289 2.73276 20.5349 2.81876C20.5419 2.90376 20.5289 2.98976 20.4989 3.07076C20.4679 3.15076 20.4199 3.22376 20.3569 3.28376Z" fill="#C9C9C9"/>
<path d="M20.355 21.642L17.287 18.649C17.191 18.555 17.065 18.496 16.929 18.48C16.794 18.464 16.657 18.493 16.541 18.562C15.403 19.232 14.099 19.586 12.771 19.586C11.442 19.586 10.138 19.232 9.00101 18.562C8.88401 18.493 8.74701 18.464 8.61201 18.48C8.47701 18.496 8.35101 18.555 8.25401 18.649L5.18701 21.642C5.12301 21.703 5.07301 21.776 5.04101 21.857C5.00901 21.939 4.99501 22.026 5.00201 22.113C5.00801 22.2 5.03401 22.284 5.07801 22.36C5.12101 22.436 5.18101 22.502 5.25401 22.552C7.43701 24.103 10.068 24.937 12.769 24.937C15.469 24.937 18.1 24.103 20.284 22.552C20.356 22.502 20.417 22.436 20.461 22.361C20.505 22.285 20.531 22.201 20.538 22.114C20.545 22.027 20.532 21.94 20.5 21.858C20.468 21.777 20.419 21.703 20.355 21.642Z" fill="#C9C9C9"/>
<path d="M12.776 16.025C14.792 16.025 16.426 14.43 16.426 12.464C16.426 10.497 14.792 8.90302 12.776 8.90302C10.761 8.90302 9.12701 10.497 9.12701 12.464C9.12701 14.43 10.761 16.025 12.776 16.025Z" fill="#C9C9C9"/>
</svg>
