<svg width="151" height="26" viewBox="0 0 151 26" fill="none" xmlns="http://www.w3.org/2000/svg">
<path d="M38.951 3.02H27.017H27.489V6.291H31.506V20.365H34.908V6.291H38.951V3.02ZM42.204 10.107V7.977H39.025V20.365H42.204V14.442C42.204 11.841 44.3 11.097 45.952 11.295V7.728C44.398 7.728 42.845 8.421 42.204 10.106V10.107ZM49.353 6.49C50.438 6.49 51.325 5.597 51.325 4.532C51.325 3.467 50.438 2.55 49.353 2.55C48.294 2.55 47.406 3.467 47.406 4.532C47.417 5.609 48.282 6.478 49.353 6.49ZM47.775 20.365H50.956V7.977H47.775V20.365ZM63.035 7.976V9.512C62.172 8.348 60.841 7.629 59.091 7.629C55.591 7.629 52.952 10.504 52.952 13.972C52.952 17.465 55.591 20.315 59.091 20.315C60.841 20.315 62.172 19.597 63.035 18.432V19.77C63.035 21.727 61.802 22.818 59.806 22.818C57.907 22.818 57.094 22.05 56.576 21.083L53.865 22.644C54.949 24.651 57.069 25.667 59.707 25.667C62.961 25.667 66.14 23.833 66.14 19.77V7.976H63.035ZM59.584 17.366C57.587 17.366 56.133 15.955 56.133 13.972C56.133 12.015 57.587 10.602 59.584 10.602C61.58 10.602 63.035 12.014 63.035 13.972C63.035 15.955 61.58 17.366 59.584 17.366ZM78.196 7.976V9.512C77.333 8.348 76.002 7.629 74.252 7.629C70.751 7.629 68.114 10.504 68.114 13.972C68.114 17.465 70.751 20.315 74.252 20.315C76.002 20.315 77.333 19.597 78.196 18.432V19.77C78.196 21.727 76.963 22.818 74.967 22.818C73.068 22.818 72.254 22.05 71.737 21.083L69.025 22.644C70.11 24.651 72.23 25.667 74.867 25.667C78.121 25.667 81.301 23.833 81.301 19.77V7.976H78.196ZM74.744 17.366C72.748 17.366 71.293 15.955 71.293 13.972C71.293 12.015 72.748 10.602 74.744 10.602C76.741 10.602 78.196 12.014 78.196 13.972C78.196 15.955 76.74 17.366 74.744 17.366ZM86.601 15.483H95.893C95.973 15.05 96.015 14.61 96.017 14.17C96.017 10.528 93.428 7.629 89.78 7.629C85.91 7.629 83.273 10.478 83.273 14.17C83.273 17.862 85.886 20.711 90.027 20.711C92.393 20.711 94.241 19.745 95.4 18.06L92.836 16.574C92.294 17.293 91.309 17.813 90.075 17.813C88.4 17.813 87.044 17.119 86.601 15.483ZM86.551 13.005C86.921 11.42 88.08 10.503 89.78 10.503C91.111 10.503 92.442 11.222 92.836 13.005H86.551ZM101.082 10.107V7.977H97.903V20.365H101.082V14.442C101.082 11.841 103.177 11.097 104.829 11.295V7.728C103.276 7.728 101.723 8.421 101.082 10.106V10.107ZM106.036 20.687C106.592 20.687 107.125 20.465 107.518 20.07C107.911 19.675 108.132 19.139 108.131 18.58C108.132 18.022 107.911 17.486 107.518 17.091C107.125 16.696 106.592 16.474 106.036 16.475C105.48 16.474 104.947 16.696 104.554 17.091C104.161 17.486 103.941 18.022 103.941 18.58C103.94 19.139 104.161 19.675 104.554 20.07C104.947 20.465 105.48 20.687 106.036 20.687ZM119.398 3.02V9.438C118.51 8.298 117.204 7.629 115.405 7.629C112.102 7.629 109.39 10.478 109.39 14.17C109.39 17.862 112.102 20.711 115.405 20.711C117.204 20.711 118.51 20.042 119.398 18.903V20.365H122.577V3.02H119.398ZM115.996 17.664C114.024 17.664 112.57 16.252 112.57 14.17C112.57 12.089 114.024 10.677 115.996 10.677C117.943 10.677 119.398 12.088 119.398 14.17C119.398 16.251 117.943 17.664 115.996 17.664ZM127.679 15.483H136.972C137.052 15.05 137.093 14.61 137.095 14.17C137.095 10.528 134.507 7.629 130.859 7.629C126.989 7.629 124.352 10.478 124.352 14.17C124.352 17.862 126.964 20.711 131.106 20.711C133.472 20.711 135.321 19.745 136.479 18.06L133.916 16.574C133.374 17.293 132.387 17.813 131.155 17.813C129.478 17.813 128.123 17.119 127.679 15.483ZM127.63 13.005C128 11.42 129.158 10.503 130.859 10.503C132.19 10.503 133.521 11.222 133.916 13.005H127.63ZM146.684 7.976L143.677 16.648L140.694 7.976H137.194L141.877 20.364H145.501L150.185 7.976H146.684ZM7.031 8.282L11.789 0L23.576 20.525H0L4.756 12.243L8.121 14.196L6.729 16.618H16.846L11.788 7.811L10.396 10.234L7.031 8.282Z" fill="#C9C9C9"/>
</svg>
