<svg width="106" height="23" viewBox="0 0 106 23" fill="none" xmlns="http://www.w3.org/2000/svg">
<path d="M29.8987 2.563H34.6567L38.6917 12.227H38.8767L42.9127 2.563H47.6697V18.173H43.9287V8.585H43.7967L39.9797 18.073H37.5887L33.7717 8.531H33.6397V18.173H29.8987V2.563ZM49.1907 18.173V6.466H52.9857V18.173H49.1907ZM51.0917 5.101C50.5827 5.11 50.0907 4.924 49.7187 4.583C49.3357 4.233 49.1437 3.811 49.1437 3.317C49.1437 2.83 49.3357 2.413 49.7197 2.068C50.0887 1.722 50.5817 1.534 51.0917 1.542C51.6297 1.542 52.0887 1.717 52.4647 2.068C52.8477 2.413 53.0387 2.829 53.0387 3.317C53.0387 3.811 52.8477 4.233 52.4647 4.583C52.0877 4.928 51.6307 5.101 51.0917 5.101ZM58.3207 11.496V18.173H54.5257V6.466H58.1347V8.615H58.2667C58.5307 7.898 58.9797 7.337 59.6157 6.93C60.2527 6.519 61.0097 6.313 61.8907 6.313C62.7277 6.313 63.4547 6.498 64.0707 6.87C64.6917 7.236 65.1927 7.77 65.5137 8.409C65.8607 9.065 66.0327 9.832 66.0257 10.711V18.173H62.2317V11.442C62.2367 10.792 62.0697 10.284 61.7277 9.918C61.3907 9.552 60.9227 9.369 60.3217 9.369C59.9247 9.369 59.5727 9.456 59.2667 9.628C58.9667 9.796 58.7237 10.049 58.5697 10.353C58.4087 10.668 58.3267 11.048 58.3207 11.496ZM74.2297 6.465V9.209H66.7097V6.466H74.2287L74.2297 6.465ZM68.2847 3.66H72.0797V14.491C72.0797 14.72 72.1157 14.905 72.1877 15.048C72.2617 15.181 72.3787 15.286 72.5217 15.345C72.6667 15.401 72.8397 15.429 73.0417 15.429C73.1877 15.429 73.3387 15.416 73.4997 15.391C73.6647 15.36 73.7887 15.335 73.8717 15.314L74.4457 18.005C74.2657 18.056 74.0087 18.119 73.6777 18.196C73.2927 18.279 72.8997 18.327 72.5057 18.34C71.6167 18.38 70.8537 18.279 70.2177 18.035C69.5857 17.787 69.1017 17.401 68.7667 16.877C68.4347 16.353 68.2747 15.695 68.2847 14.903V3.66ZM79.3407 2.563V18.173H75.5467V2.563H79.3407ZM80.8827 18.173V6.466H84.6767V18.173H80.8827ZM82.7837 5.101C82.2747 5.11 81.7817 4.924 81.4097 4.583C81.0277 4.233 80.8357 3.811 80.8357 3.317C80.8357 2.83 81.0277 2.413 81.4097 2.068C81.7797 1.722 82.2727 1.533 82.7837 1.542C83.3217 1.542 83.7797 1.717 84.1567 2.068C84.5397 2.413 84.7307 2.829 84.7307 3.317C84.7307 3.811 84.5397 4.233 84.1567 4.583C83.7797 4.928 83.3217 5.101 82.7837 5.101ZM92.9927 6.466V9.209H85.3247V6.466H92.9927ZM86.9237 18.173V5.871C86.9237 4.967 87.0977 4.217 87.4437 3.622C87.7727 3.039 88.2767 2.571 88.8867 2.281C89.5027 1.981 90.2137 1.831 91.0217 1.831C91.5487 1.831 92.0447 1.872 92.5107 1.953C92.9817 2.029 93.3307 2.098 93.5577 2.159L92.9537 4.888C92.7857 4.836 92.6147 4.797 92.4407 4.773C92.2567 4.744 92.0697 4.729 91.8827 4.728C91.4367 4.728 91.1327 4.824 90.9667 5.018C90.8007 5.21 90.7187 5.475 90.7187 5.81V18.172H86.9237V18.173ZM96.2627 22.563C95.8317 22.565 95.4007 22.529 94.9757 22.456C94.6207 22.402 94.2717 22.313 93.9357 22.189L94.7737 19.483C95.1467 19.605 95.4827 19.676 95.7827 19.697C96.0877 19.717 96.3487 19.669 96.5667 19.552C96.7887 19.441 96.9597 19.239 97.0787 18.95L97.2257 18.599L92.9887 6.466H96.9617L99.1577 14.819H99.2817L101.509 6.466H105.505L101.012 19.293C100.81 19.907 100.498 20.48 100.089 20.985C99.6957 21.478 99.1867 21.864 98.5607 22.143C97.9397 22.423 97.1737 22.563 96.2627 22.563ZM6.01371 8.18C6.02971 6.045 6.89171 4 8.41671 2.479H8.41371L2.52571 8.263H2.52771C2.50671 8.28 2.48571 8.298 2.46671 8.318C-0.493294 11.222 -0.830291 15.822 1.67771 19.112L7.62371 13.27L7.68571 13.212C6.57771 11.762 5.98971 9.993 6.01371 8.18ZM22.8327 8.263V0.382003C22.8327 0.172003 22.6587 0.00100344 22.4447 3.43671e-06H14.4217C12.1907 -0.00199656 10.0497 0.869003 8.47471 2.422L8.41671 2.479L8.40771 2.487C7.65771 3.242 7.33371 4.541 7.30771 5.974C9.48671 5.685 11.6937 6.251 13.4517 7.547C14.7787 8.519 15.7837 9.855 16.3387 11.387C16.7767 12.6 16.9217 13.897 16.7627 15.174C18.2437 15.081 19.6217 14.762 20.2507 14.219L20.3097 14.161L20.3687 14.107C21.9487 12.558 22.8357 10.455 22.8327 8.263ZM20.3107 14.165C18.0107 16.378 14.6287 17.11 11.5947 16.05C10.8027 15.774 10.0577 15.38 9.38571 14.883L3.37771 20.781C6.72771 23.237 11.4047 22.907 14.3637 20.006L20.3107 14.165Z" fill="#C9C9C9"/>
</svg>
