<svg width="117" height="27" viewBox="0 0 117 27" fill="none" xmlns="http://www.w3.org/2000/svg">
<path d="M0.125 11.543C0.061 11.993 0.019 12.447 0 12.901H20.4C20.325 12.763 20.237 12.633 20.136 12.512C16.649 7.987 14.773 8.379 12.089 8.264C11.195 8.227 10.588 8.212 7.026 8.212C5.12 8.212 3.048 8.217 1.03 8.222C0.769001 8.93 0.516999 9.617 0.393999 10.175H10.848V11.543H0.125ZM20.56 14.27H0.0109997C0.0319997 14.635 0.0659998 14.995 0.115 15.35H19.087C19.933 15.35 20.406 14.868 20.56 14.27ZM1.18 19.081C1.18 19.081 4.327 26.838 13.415 26.976C18.847 26.976 23.514 23.735 25.634 19.081H1.18ZM13.414 0C8.391 0 4.021 2.77 1.713 6.865C3.485 6.862 5.257 6.861 7.029 6.86H7.03V6.858C11.182 6.858 11.336 6.877 12.148 6.911L12.65 6.929C14.399 6.988 16.549 7.176 18.241 8.462C19.16 9.16 20.485 10.699 21.275 11.795C22.006 12.809 22.217 13.975 21.72 15.092C21.263 16.119 20.279 16.731 19.087 16.731H0.438C0.438 16.731 0.548998 17.204 0.714998 17.726H26.172C26.624 16.361 26.855 14.932 26.857 13.494C26.857 6.041 20.839 0 13.414 0ZM40.366 20.47H43.534V15.135H45.845L48.684 20.469H52.181L48.999 14.62C50.703 13.886 51.647 12.394 51.647 10.337C51.647 7.346 49.68 5.421 46.278 5.421H40.366V20.47ZM43.534 12.578V8.022H45.67C47.498 8.022 48.384 8.837 48.384 10.337C48.384 11.828 47.498 12.578 45.684 12.578H43.534ZM57.031 20.682C58.691 20.682 59.767 19.955 60.315 18.905H60.403V20.47H63.358V12.857C63.358 10.167 61.091 9.036 58.589 9.036C55.896 9.036 54.126 10.329 53.695 12.386L56.577 12.622C56.79 11.872 57.455 11.321 58.574 11.321C59.635 11.321 60.242 11.857 60.242 12.784V12.827C60.242 13.555 59.474 13.65 57.52 13.842C55.297 14.048 53.3 14.797 53.3 17.317C53.3 19.55 54.887 20.682 57.031 20.682ZM57.923 18.522C56.965 18.522 56.277 18.074 56.277 17.214C56.277 16.333 57.001 15.899 58.099 15.744C58.779 15.649 59.891 15.487 60.264 15.237V16.436C60.264 17.618 59.291 18.522 57.923 18.522ZM65.776 20.47H68.893V9.183H65.776V20.47ZM67.342 7.728C68.271 7.728 69.032 7.015 69.032 6.141C69.032 5.274 68.271 4.561 67.342 4.561C66.42 4.561 65.66 5.274 65.66 6.141C65.66 7.015 66.42 7.728 67.342 7.728ZM74.505 5.421H71.389V20.47H74.505V5.421ZM79.219 20.47H82.511L84.442 13.371H84.58L86.512 20.47H89.812L92.862 9.183H89.716L88.004 16.722H87.909L86.066 9.183H82.971L81.157 16.766H81.055L79.313 9.183H76.16L79.219 20.47ZM97.728 20.682C99.389 20.682 100.464 19.955 101.013 18.905H101.101V20.47H104.056V12.857C104.056 10.167 101.788 9.036 99.287 9.036C96.594 9.036 94.824 10.329 94.393 12.386L97.275 12.622C97.487 11.872 98.153 11.321 99.272 11.321C100.333 11.321 100.94 11.857 100.94 12.784V12.827C100.94 13.555 100.172 13.65 98.218 13.842C95.994 14.048 93.997 14.797 93.997 17.317C93.997 19.55 95.585 20.682 97.728 20.682ZM98.621 18.522C97.663 18.522 96.975 18.074 96.975 17.214C96.975 16.333 97.699 15.899 98.797 15.744C99.477 15.649 100.589 15.487 100.962 15.237V16.436C100.962 17.618 99.989 18.522 98.621 18.522ZM107.996 24.702C110.315 24.702 111.544 23.511 112.18 21.689L116.548 9.198L113.248 9.183L110.9 17.471H110.783L108.457 9.183H105.179L109.21 20.792L109.027 21.271C108.617 22.328 107.835 22.379 106.737 22.042L106.035 24.379C106.481 24.569 107.206 24.702 107.996 24.702Z" fill="#C9C9C9"/>
</svg>
